<svg version="1.0" xmlns="http://www.w3.org/2000/svg" width="700.000000pt" height="700.000000pt" viewBox="0 0 700.000000 700.000000" preserveAspectRatio="xMidYMid meet">
<metadata>
Created by potrace 1.12, written by Peter Selinger 2001-2015
</metadata>
<g transform="translate(0.000000,700.000000) scale(0.100000,-0.100000)" fill="#000000" stroke="none">
<path d="M3716 6113 c-3 -4 1 -14 9 -23 12 -14 13 -26 5 -70 -5 -29 -10 -67
-10 -85 0 -18 -7 -38 -15 -45 -23 -19 -18 -27 18 -33 38 -6 54 5 33 22 -14 12
-14 24 0 139 5 44 24 59 24 20 0 -25 35 -162 45 -179 11 -17 28 5 70 90 41 84
62 105 51 49 -4 -18 -9 -53 -13 -78 -3 -25 -12 -51 -21 -57 -19 -15 -18 -16
36 -30 45 -11 56 -6 42 17 -14 23 0 182 18 203 19 21 14 26 -31 34 l-36 5 -38
-76 c-20 -42 -42 -75 -47 -73 -5 2 -17 36 -27 76 -10 41 -21 77 -26 81 -11 10
-80 20 -87 13z"></path>
<path d="M3296 6059 c-3 -8 -6 -23 -8 -34 -2 -13 -13 -22 -33 -25 -44 -8 -40
-35 5 -35 33 0 35 -2 35 -35 0 -24 5 -35 15 -35 11 0 15 11 15 40 0 38 2 40
30 40 20 0 30 5 30 15 0 10 -10 15 -30 15 -24 0 -31 5 -33 25 -5 31 -20 48
-26 29z"></path>
<path d="M2790 6047 c-19 -7 -41 -24 -50 -39 -22 -41 1 -77 65 -101 82 -30 95
-53 49 -84 -27 -17 -27 -17 -54 16 -31 36 -43 30 -31 -15 6 -25 13 -29 47 -32
48 -3 101 27 110 64 9 37 -23 76 -76 91 -73 21 -92 53 -44 75 23 11 29 10 44
-10 32 -39 49 -27 30 22 -11 29 -33 32 -90 13z"></path>
<path d="M4150 6042 c0 -4 5 -13 11 -19 14 -14 -25 -174 -46 -189 -27 -20 -16
-29 58 -47 104 -25 117 -24 117 13 0 33 -11 38 -30 15 -30 -37 -81 -7 -73 43
7 43 30 52 54 21 l18 -24 11 29 c13 35 5 65 -12 48 -7 -7 -20 -12 -30 -12 -22
0 -25 47 -5 74 17 23 62 7 70 -25 5 -19 8 -20 22 -9 9 7 15 22 13 34 -2 17
-17 24 -78 38 -86 20 -100 21 -100 10z"></path>
<path d="M2464 5956 c-90 -40 -100 -150 -19 -226 48 -45 153 -23 176 37 27 73
-4 163 -66 189 -42 17 -51 17 -91 0z m69 -34 c25 -27 47 -87 47 -126 0 -45
-34 -72 -72 -57 -49 18 -86 145 -53 181 22 25 57 26 78 2z"></path>
<path d="M4465 5955 c-3 -8 -7 -22 -10 -31 -9 -29 7 -36 30 -14 21 20 27 21
59 10 20 -6 36 -15 36 -18 0 -4 -43 -38 -95 -76 -52 -38 -95 -72 -95 -77 0
-12 18 -22 100 -51 69 -25 76 -26 88 -11 13 19 16 46 5 57 -4 4 -15 -3 -24
-15 -16 -22 -19 -22 -58 -9 -23 7 -41 19 -41 27 0 7 4 13 8 13 17 0 183 132
180 142 -3 8 -157 68 -175 68 -2 0 -6 -7 -8 -15z"></path>
<path d="M2173 5845 c-58 -25 -83 -58 -83 -110 0 -115 92 -177 189 -127 49 24
60 46 37 71 -23 25 -38 18 -30 -14 8 -32 -33 -53 -74 -39 -57 20 -94 141 -54
177 23 21 41 21 64 0 24 -21 32 -11 21 24 -11 33 -27 37 -70 18z"></path>
<path d="M4778 5805 c-31 -17 -68 -89 -68 -132 0 -36 40 -90 77 -104 62 -23
72 -22 83 7 13 32 -1 52 -20 29 -36 -44 -97 6 -87 71 7 44 50 102 82 110 36 9
68 -13 62 -42 -6 -31 12 -43 30 -19 23 33 15 52 -30 74 -50 24 -91 26 -129 6z"></path>
<path d="M1817 5664 c-6 -6 -2 -40 19 -157 8 -44 11 -90 8 -103 -7 -29 -2 -30
37 -7 34 20 36 29 9 36 -13 3 -20 14 -20 31 0 35 52 63 86 47 25 -11 31 -26
14 -36 -6 -4 -8 -10 -5 -15 6 -9 94 40 95 53 0 4 -7 7 -16 7 -17 0 -147 95
-180 131 -17 19 -35 24 -47 13z m72 -97 c20 -22 20 -25 5 -38 -14 -11 -18 -11
-30 6 -15 21 -19 55 -6 55 5 0 18 -11 31 -23z"></path>
<path d="M5080 5585 c-52 -41 -103 -74 -112 -74 -25 -1 -22 -16 7 -35 31 -21
49 -21 41 0 -8 21 11 44 35 44 10 0 30 -10 45 -23 23 -20 25 -26 15 -45 -6
-12 -16 -22 -21 -22 -21 0 -8 -17 29 -42 43 -28 54 -27 45 6 -3 12 4 73 15
135 19 108 19 132 3 130 -4 0 -50 -34 -102 -74z m62 -22 c-8 -45 -22 -57 -44
-37 -18 17 -18 18 8 45 32 33 43 30 36 -8z"></path>
<path d="M1535 5469 c-108 -82 -103 -75 -70 -109 32 -33 55 -27 35 10 -6 12
-9 28 -6 36 12 31 43 11 94 -61 43 -61 51 -78 43 -93 -18 -34 0 -32 45 6 48
39 55 53 25 49 -22 -3 -135 138 -127 159 7 19 35 18 57 -2 29 -26 40 -7 18 31
-12 19 -24 35 -28 35 -4 0 -43 -27 -86 -61z"></path>
<path d="M5387 5503 c-3 -3 -3 -11 0 -19 7 -19 -95 -153 -126 -166 -24 -9 -25
-11 -7 -22 10 -6 45 -32 77 -59 l58 -48 27 36 c32 43 25 56 -17 31 -31 -18
-31 -18 -56 6 l-25 25 57 74 c35 45 65 74 76 74 10 0 19 4 19 8 1 11 -77 67
-83 60z"></path>
<path d="M2435 5094 c-282 -59 -488 -236 -590 -509 -46 -121 -58 -198 -58
-365 1 -148 4 -173 45 -360 2 -11 -17 -16 -82 -22 -172 -14 -280 -45 -388
-110 -62 -39 -76 -69 -43 -101 l21 -22 78 42 c109 58 200 83 337 90 106 6 115
5 121 -13 24 -66 109 -246 145 -307 120 -198 304 -301 427 -238 69 35 102 95
102 184 0 151 -110 287 -307 378 -81 38 -216 79 -259 79 -31 0 -42 17 -63 106
-53 212 -49 420 10 599 92 278 311 459 571 473 209 11 387 -108 482 -321 24
-54 66 -205 66 -237 0 -30 -168 -180 -202 -180 -8 0 -33 29 -56 64 -115 175
-297 264 -425 208 -92 -41 -167 -120 -167 -175 0 -23 13 -36 93 -88 191 -126
323 -176 437 -165 l69 7 21 -73 c12 -40 24 -82 27 -92 3 -11 8 -71 12 -135 l6
-115 35 -23 c125 -79 146 -130 170 -403 24 -280 80 -378 250 -436 79 -27 283
-27 360 0 175 60 223 150 255 466 25 253 51 313 161 368 l41 21 6 114 c5 112
36 258 60 291 10 13 20 14 57 5 112 -26 251 21 448 150 106 70 114 88 63 158
-60 83 -137 123 -233 123 -114 0 -225 -71 -328 -210 l-52 -70 -29 16 c-17 8
-64 47 -105 86 l-75 71 7 46 c28 191 135 372 274 461 198 127 479 76 670 -120
103 -106 169 -236 201 -397 21 -102 16 -316 -9 -435 -24 -114 -40 -152 -67
-156 -255 -36 -494 -188 -556 -352 -29 -78 -24 -172 14 -228 55 -85 155 -105
262 -53 140 67 245 207 351 466 l32 80 109 -1 c133 -2 235 -27 345 -87 l78
-42 21 22 c33 32 19 62 -44 101 -107 65 -217 96 -374 108 -60 4 -93 11 -93 18
0 7 10 54 21 106 27 118 32 357 10 465 -77 386 -348 648 -694 672 -96 6 -185
-12 -287 -59 -93 -44 -222 -176 -272 -278 -43 -89 -85 -229 -94 -314 l-6 -61
83 -80 c46 -44 106 -96 132 -115 37 -26 47 -39 43 -55 -2 -11 -16 -63 -31
-115 -14 -52 -28 -133 -32 -180 l-6 -86 -41 -28 c-96 -66 -129 -143 -151 -351
-23 -217 -32 -263 -61 -323 -50 -102 -150 -147 -309 -140 -74 3 -102 9 -147
31 -105 52 -138 125 -163 357 -9 85 -21 180 -27 210 -18 97 -70 178 -137 220
-37 23 -41 28 -41 67 0 72 -21 194 -47 276 -13 44 -21 83 -16 87 4 5 32 26 61
48 29 22 85 70 124 108 l70 68 -6 62 c-27 263 -168 494 -364 593 -91 46 -259
73 -347 55z m88 -660 c53 -18 129 -82 181 -153 43 -58 44 -69 10 -77 -70 -18
-274 66 -376 154 -24 20 -9 44 44 71 51 25 79 26 141 5z m2092 -17 c28 -14 65
-48 65 -61 0 -12 -101 -77 -177 -115 -92 -46 -243 -63 -243 -27 0 7 26 44 58
82 102 122 208 165 297 121z m-2497 -733 c42 -14 108 -43 146 -66 127 -75 185
-155 186 -256 0 -165 -191 -122 -322 71 -36 53 -138 251 -138 270 0 14 52 7
128 -19z m2887 5 c-17 -53 -79 -175 -120 -238 -133 -202 -318 -259 -333 -103
-9 100 54 195 181 271 65 38 209 91 250 91 24 0 27 -3 22 -21z"></path>
<path d="M5355 2325 c-68 -70 -164 -213 -222 -334 l-45 -93 -83 -39 c-87 -41
-105 -46 -105 -29 0 15 67 147 106 208 19 29 34 56 34 61 0 9 -73 71 -83 71
-7 0 -120 -176 -146 -227 -14 -28 -34 -49 -60 -62 -56 -29 -139 -60 -145 -54
-6 7 32 83 84 169 22 35 40 68 40 72 0 5 -21 24 -46 42 l-47 33 -18 -24 c-10
-13 -38 -60 -61 -104 -51 -95 -88 -139 -147 -177 -47 -30 -71 -35 -71 -17 0
21 80 182 120 239 l39 59 -41 30 c-23 17 -47 31 -54 31 -15 0 -106 -141 -145
-224 -28 -60 -32 -64 -92 -88 -55 -23 -169 -54 -264 -73 -33 -7 -33 -6 -33 32
1 70 62 174 127 214 44 27 51 19 24 -26 -11 -20 -21 -38 -21 -40 0 -11 104
-73 113 -68 12 7 79 153 75 164 -4 11 -139 109 -150 109 -5 0 -35 -12 -66 -27
-82 -41 -166 -123 -202 -198 -28 -59 -33 -64 -99 -93 -75 -34 -121 -48 -121
-38 0 12 62 130 108 205 l45 75 -29 23 c-60 49 -59 50 -112 -29 -27 -40 -63
-98 -81 -129 -17 -31 -39 -63 -49 -71 -17 -15 -136 -68 -152 -68 -5 0 9 37 30
83 59 127 59 135 1 180 -27 20 -57 37 -66 37 -9 0 -48 -20 -86 -45 -38 -25
-72 -45 -75 -45 -3 0 4 15 15 34 l21 34 -37 31 c-21 17 -43 31 -50 31 -19 0
-65 -68 -122 -179 l-50 -98 -70 -31 c-75 -34 -121 -48 -121 -38 0 12 83 171
117 225 l35 54 -29 23 c-46 38 -64 40 -89 8 -13 -15 -51 -75 -85 -132 l-62
-105 -73 -33 c-67 -31 -94 -40 -94 -30 0 2 11 24 25 48 14 25 34 72 46 104
l20 59 -48 42 c-26 24 -57 43 -67 43 -11 0 -53 -21 -93 -46 -41 -25 -77 -44
-80 -41 -3 3 22 54 56 112 33 59 61 113 61 120 0 15 -63 65 -82 65 -32 0 -298
-523 -298 -586 0 -12 20 -32 50 -52 l50 -32 10 22 c5 13 22 57 37 98 23 60 36
79 66 100 66 44 166 95 173 87 11 -10 -29 -90 -82 -164 l-44 -62 54 -41 c63
-47 58 -48 181 11 88 43 76 45 152 -25 l32 -29 43 18 c24 9 66 28 94 42 l51
25 54 -41 c64 -48 64 -48 104 64 16 43 38 88 51 100 27 25 183 109 190 102 11
-11 -12 -63 -62 -138 -30 -44 -54 -84 -54 -90 0 -5 25 -25 55 -45 l54 -36 102
45 101 46 48 -45 c26 -24 50 -44 54 -44 4 0 58 23 122 51 l115 51 59 -51 c35
-30 68 -51 82 -51 64 1 160 29 324 96 6 3 38 -18 72 -46 l61 -51 43 22 c24 12
57 32 74 45 l30 24 39 -40 c22 -22 47 -40 56 -40 9 0 48 16 85 35 38 19 73 35
78 35 5 0 29 -18 53 -41 50 -46 46 -46 172 12 46 21 88 39 94 39 5 0 32 -21
59 -46 l49 -46 62 7 c83 10 196 47 282 93 70 37 70 37 68 76 -2 22 -7 44 -11
48 -5 5 -46 -9 -93 -31 -85 -40 -271 -87 -277 -70 -2 5 1 24 8 43 9 29 19 37
73 56 154 55 255 159 293 305 8 28 14 58 14 68 0 20 -126 117 -153 117 -10 0
-43 -25 -72 -55z m91 -123 c-9 -27 -29 -69 -45 -94 -29 -45 -107 -115 -118
-104 -3 3 16 42 43 87 49 82 122 174 131 165 3 -3 -2 -27 -11 -54z"></path>
<path d="M2802 2320 c-32 -30 -30 -82 4 -109 36 -28 70 -26 99 5 30 33 32 63
4 98 -26 33 -75 35 -107 6z"></path>
<path d="M3681 2314 c-12 -15 -21 -38 -21 -51 0 -32 42 -73 75 -73 35 0 75 42
75 78 0 65 -89 97 -129 46z"></path>
<path d="M5029 2321 c-49 -40 -18 -131 46 -131 38 0 75 37 75 75 0 65 -70 97
-121 56z"></path>
<path d="M1750 2293 c-133 -78 -264 -243 -324 -411 -37 -103 -35 -112 28 -166
44 -37 61 -46 93 -46 57 0 153 25 232 61 77 34 82 44 60 108 -13 36 -18 37
-84 12 -65 -25 -175 -45 -186 -34 -11 11 31 128 66 183 53 84 204 224 222 206
3 -3 -11 -40 -31 -83 -21 -43 -38 -80 -38 -83 -1 -3 21 -18 48 -33 l48 -29 19
24 c28 33 97 174 97 196 0 19 -147 132 -172 132 -7 0 -43 -17 -78 -37z"></path>
<path d="M2835 1298 c0 -73 1 -78 21 -78 20 0 21 5 18 65 -3 65 7 88 29 66 9
-9 8 -16 -1 -31 -10 -16 -10 -24 0 -40 10 -16 10 -24 0 -41 -12 -19 -11 -20 9
-17 32 4 47 33 32 58 -7 11 -10 32 -7 49 7 35 -13 50 -66 48 l-35 -1 0 -78z"></path>
<path d="M3083 1363 c-7 -24 -42 -103 -54 -125 -7 -14 -5 -18 10 -18 13 0 21
8 23 23 2 16 10 22 28 22 18 0 26 -6 28 -22 3 -17 10 -23 29 -23 16 0 23 4 20
13 -18 43 -46 115 -51 130 -3 9 -10 17 -16 17 -6 0 -13 -8 -17 -17z m25 -61
c2 -7 -3 -12 -12 -12 -9 0 -16 7 -16 16 0 17 22 14 28 -4z"></path>
<path d="M3257 1303 c2 -70 4 -78 22 -81 18 -3 20 0 15 27 -9 41 15 42 38 1 9
-17 24 -30 33 -30 19 0 19 5 -2 36 -13 21 -14 30 -5 45 7 10 12 25 12 33 0 23
-41 46 -80 46 l-35 0 2 -77z m68 27 c0 -27 -22 -39 -31 -16 -8 22 3 49 19 43
6 -2 12 -14 12 -27z"></path>
<path d="M3467 1303 l2 -78 52 0 c60 0 83 20 62 55 -7 11 -10 32 -7 49 6 27 3
32 -20 41 -15 5 -42 10 -59 10 l-32 0 2 -77z m78 47 c3 -5 1 -19 -5 -30 -8
-14 -7 -25 1 -38 15 -23 6 -52 -16 -52 -20 0 -31 28 -18 49 7 11 7 21 0 32 -6
9 -7 24 -4 33 7 18 32 22 42 6z"></path>
<path d="M3705 1323 c-14 -32 -30 -66 -35 -75 -14 -25 -13 -28 10 -28 13 0 20
7 20 19 0 11 5 23 10 26 6 3 10 17 10 31 0 13 5 24 10 24 6 0 10 -11 10 -24 0
-14 5 -28 10 -31 6 -3 10 -15 10 -26 0 -14 7 -19 25 -19 24 0 34 14 16 24 -4
3 -18 32 -30 65 -12 33 -26 63 -31 66 -6 3 -21 -20 -35 -52z"></path>
<path d="M3913 1365 c-27 -19 -38 -70 -24 -107 11 -29 75 -56 105 -45 17 7 22
47 6 47 -5 0 -10 -5 -10 -10 0 -20 -31 -22 -50 -5 -26 24 -26 76 0 100 19 17
21 17 38 2 25 -23 34 -21 30 6 -2 17 -10 23 -38 25 -20 1 -45 -4 -57 -13z"></path>
<path d="M4112 1357 c-33 -35 -30 -99 4 -126 37 -29 60 -26 96 9 26 27 30 36
25 68 -11 68 -82 95 -125 49z m78 -16 c26 -49 -1 -127 -37 -105 -18 11 -30 81
-19 110 8 21 44 17 56 -5z"></path>
<path d="M4345 1305 c-20 -42 -33 -81 -30 -85 9 -14 35 0 35 19 0 10 3 21 8
25 4 4 7 17 7 29 0 11 6 22 14 25 10 3 12 -1 9 -16 -4 -12 0 -26 8 -33 8 -7
12 -20 9 -30 -5 -16 -1 -19 26 -19 24 0 29 3 21 13 -5 6 -20 40 -32 75 -13 34
-27 65 -32 68 -5 3 -24 -29 -43 -71z"></path>
<path d="M2337 1063 c-4 -3 -2 -12 4 -20 8 -8 10 -36 6 -74 l-5 -60 51 3 c31
2 52 8 55 16 3 10 -5 12 -33 6 -35 -6 -37 -5 -33 17 2 16 10 24 23 24 11 0 20
7 20 15 0 10 -8 14 -22 12 -18 -3 -23 2 -23 18 0 25 25 37 44 21 16 -13 32 2
21 19 -7 11 -98 14 -108 3z"></path>
<path d="M2528 1044 c-12 -25 -10 -29 26 -59 22 -19 36 -37 32 -44 -9 -14 -36
-15 -36 -1 0 6 -7 10 -16 10 -9 0 -14 -7 -12 -17 2 -13 14 -19 41 -21 74 -6
89 38 30 86 -31 25 -36 33 -25 43 9 10 15 10 24 1 18 -18 28 -15 28 8 0 17 -7
20 -40 20 -34 0 -42 -4 -52 -26z"></path>
<path d="M2707 1064 c-9 -9 -9 -44 -1 -44 4 0 12 7 19 17 17 23 35 8 30 -25
-16 -103 -16 -102 13 -102 l28 0 -4 70 c-3 48 -1 70 7 70 6 0 14 -7 17 -15 9
-23 26 -18 22 8 -3 20 -9 22 -63 25 -34 2 -64 0 -68 -4z"></path>
<path d="M2917 1063 c-4 -3 -2 -12 4 -20 7 -8 10 -37 7 -73 -4 -55 -3 -60 16
-60 19 0 21 6 21 80 0 74 -1 80 -21 80 -11 0 -24 -3 -27 -7z"></path>
<path d="M3065 990 l0 -81 55 3 c48 3 55 6 58 26 4 28 -15 28 -37 0 -30 -37
-44 -14 -39 63 5 65 4 69 -16 69 -20 0 -21 -5 -21 -80z"></path>
<path d="M3260 1043 c-17 -22 -21 -37 -17 -66 7 -53 22 -67 73 -67 51 0 74 25
74 80 0 74 -86 109 -130 53z m79 -7 c7 -8 11 -31 9 -52 -6 -73 -68 -68 -68 5
0 54 32 79 59 47z"></path>
<path d="M3597 1007 c4 -42 2 -67 -6 -71 -20 -13 -11 -26 18 -26 26 0 29 3 27
33 -1 28 2 32 24 32 22 0 25 -4 24 -32 -2 -28 2 -33 20 -33 20 0 21 5 21 80 0
76 -1 80 -23 80 -19 0 -22 -5 -20 -32 3 -29 0 -33 -22 -33 -21 0 -25 5 -25 30
-1 23 -6 31 -22 33 -20 3 -21 0 -16 -61z"></path>
<path d="M3825 990 c0 -73 2 -80 20 -80 18 0 20 7 20 80 0 73 -2 80 -20 80
-18 0 -20 -7 -20 -80z"></path>
<path d="M3957 1063 c-4 -3 -2 -12 4 -20 8 -8 10 -36 6 -73 l-5 -60 48 0 c41
0 52 4 69 26 12 15 21 39 21 54 0 15 -9 39 -21 54 -17 22 -29 26 -68 26 -26 0
-51 -3 -54 -7z m91 -25 c16 -16 16 -80 0 -96 -7 -7 -20 -12 -30 -12 -15 0 -18
9 -18 53 0 30 3 57 7 60 10 11 28 8 41 -5z"></path>
<path d="M4227 1039 c-9 -19 -24 -52 -33 -74 -10 -22 -20 -43 -22 -47 -2 -5 5
-8 16 -8 14 0 22 8 24 23 2 16 10 22 28 22 18 0 26 -6 28 -22 3 -17 10 -23 29
-23 16 0 23 4 20 13 -3 6 -17 38 -30 70 -34 80 -42 86 -60 46z m31 -47 c2 -7
-3 -12 -12 -12 -9 0 -16 7 -16 16 0 17 22 14 28 -4z"></path>
<path d="M4405 990 l0 -80 53 0 c49 0 52 2 52 25 0 29 -8 32 -25 8 -8 -10 -19
-14 -30 -9 -15 5 -17 15 -13 71 5 61 4 65 -16 65 -20 0 -21 -5 -21 -80z"></path>
<path d="M4609 1051 c-18 -14 -24 -29 -24 -59 0 -56 26 -82 81 -82 48 0 51 2
55 45 3 25 0 31 -19 33 -20 3 -23 0 -20 -25 3 -24 -1 -28 -22 -28 -29 0 -47
38 -36 79 8 32 32 44 57 28 25 -16 29 -15 29 8 0 17 -7 20 -39 20 -23 0 -48
-8 -62 -19z"></path>
<path d="M4822 1047 c-29 -30 -30 -89 -2 -117 29 -29 94 -27 114 2 22 31 20
80 -5 112 -27 34 -77 36 -107 3z m77 -11 c7 -8 11 -31 9 -52 -6 -73 -68 -68
-68 5 0 54 32 79 59 47z"></path>
</g>
</svg>